# xmcd
#
# Track frame offsets:
#	150
#	16400
#	34973
#	67363
#	77502
#	96880
#	113269
#	136493
#	158474
#	184360
#	204415
#
# Disc length: 3099 seconds
#
# Revision: 2
# Processed by: cddbd v1.5.1PL2 Copyright (c) Steve Scherf et al.
# Submitted via: audiograbber 1.83.01
#
DISCID=8d0c190b
DTITLE=Etta James - All the Way
DYEAR=2006
DGENRE=Blues
TTITLE0=All The Way
TTITLE1=Stop On By
TTITLE2=Strung Out
TTITLE3=Somewhere
TTITLE4=Holding Back The Years
TTITLE5=Imagine
TTITLE6=I Believe I Can Fly
TTITLE7=It's A Man's Man's Man's World
TTITLE8=Purple Rain
TTITLE9=What's Going On
TTITLE10=Calling You
EXTD=YEAR: 2006 ID3G:   0
EXTT0=
EXTT1=
EXTT2=
EXTT3=
EXTT4=
EXTT5=
EXTT6=
EXTT7=
EXTT8=
EXTT9=
EXTT10=
PLAYORDER=
